<svg width="256" height="256" viewBox="0 0 256 256" fill="none" xmlns="http://www.w3.org/2000/svg">
<g clip-path="url(#clip0_201:81)">
<path d="M39.9051 84.2487C39.9051 62.4206 57.6006 44.7246 79.4292 44.7246C82.5517 44.7246 85.5847 45.0976 88.4982 45.7821C88.9742 24.367 106.47 7.15001 128 7.15001V176.311H79.4297C57.6016 176.311 39.9056 158.616 39.9056 136.787C39.9056 126.701 43.6896 117.502 49.9086 110.518C43.6896 103.534 39.9051 94.3352 39.9051 84.2487Z" fill="#E9D8FD"/>
<path d="M223.243 84.2487C223.243 58.5121 202.305 37.5746 176.569 37.5746C175.645 37.5746 174.719 37.6026 173.793 37.6581C172 28.4596 167.474 20.016 160.649 13.3285C151.881 4.73701 140.29 0.00450001 128.012 0.000500001C128.008 0.000500001 128.004 0 127.999 0C115.716 0 104.121 4.73351 95.3492 13.3285C88.5247 20.016 83.9987 28.4601 82.2052 37.6586C81.2792 37.6026 80.3532 37.5751 79.4287 37.5751C53.6921 37.5751 32.7546 58.5131 32.7546 84.2492C32.7546 93.6772 35.5981 102.811 40.8541 110.518C35.5981 118.226 32.7546 127.359 32.7546 136.787C32.7546 162.524 53.6926 183.461 79.4287 183.461H104.117V248.851C104.117 252.8 107.318 256.001 111.267 256.001H144.731C148.68 256.001 151.881 252.8 151.881 248.851V205.803C151.881 201.854 148.68 198.653 144.731 198.653C140.782 198.653 137.581 201.854 137.581 205.803V241.7H118.417V183.461H127.998C131.227 183.461 132.823 181.597 133.049 181.371C133.051 181.369 133.053 181.368 133.054 181.366C133.056 181.365 133.056 181.364 133.058 181.363L177.765 136.656C180.557 133.864 180.557 129.336 177.765 126.544C174.973 123.752 170.447 123.752 167.653 126.544L135.148 159.048V15.12C149.247 18.363 160.018 30.9461 160.351 45.9401C160.399 48.0956 161.417 50.1141 163.122 51.4341C164.826 52.7546 167.035 53.2346 169.135 52.7416C171.587 52.1651 174.088 51.8736 176.569 51.8736C194.419 51.8736 208.942 66.3966 208.942 84.2477C208.942 92.1887 206.033 99.8297 200.75 105.762C198.337 108.473 198.337 112.562 200.75 115.272C206.033 121.205 208.942 128.845 208.942 136.787C208.942 154.638 194.419 169.161 176.568 169.161H166.965C163.016 169.161 159.815 172.362 159.815 176.311C159.815 180.26 163.016 183.461 166.965 183.461H176.568C202.305 183.461 223.242 162.523 223.242 136.787C223.242 127.359 220.398 118.225 215.143 110.518C220.4 102.811 223.243 93.6767 223.243 84.2487ZM79.4297 169.161C77.7557 169.161 76.1122 169.034 74.5062 168.787C58.9836 166.408 47.0556 152.964 47.0556 136.787C47.0556 130.335 48.9761 124.081 52.5306 118.78C53.3506 117.557 54.2581 116.384 55.2481 115.272C57.6611 112.562 57.6611 108.473 55.2481 105.762C49.9651 99.8297 47.0556 92.1887 47.0556 84.2477C47.0556 66.3971 61.5786 51.8736 79.4297 51.8736C80.3477 51.8736 81.2687 51.9271 82.1887 52.0066C83.7547 52.1416 85.3192 52.3791 86.8632 52.7416C88.9632 53.2341 91.1712 52.7536 92.8762 51.4341C94.5807 50.1141 95.5987 48.0956 95.6467 45.9401C95.6582 45.4296 95.6837 44.9221 95.7187 44.4181C95.7302 44.2536 95.7482 44.0911 95.7617 43.9276C95.7912 43.5871 95.8227 43.2471 95.8617 42.9096C95.8837 42.7196 95.9112 42.5306 95.9367 42.3411C95.9787 42.0306 96.0247 41.7221 96.0752 41.4146C96.1072 41.2201 96.1417 41.0266 96.1772 40.8331C96.2337 40.5286 96.2952 40.2261 96.3602 39.9241C96.4002 39.7381 96.4397 39.5521 96.4832 39.3676C96.5582 39.0481 96.6407 38.7311 96.7247 38.4151C96.7677 38.2541 96.8077 38.0926 96.8527 37.9326C96.9727 37.5106 97.1017 37.0916 97.2382 36.6771C97.2547 36.6276 97.2682 36.5776 97.2847 36.5286C97.4392 36.0666 97.6057 35.6096 97.7802 35.1571C97.8367 35.0106 97.8987 34.8666 97.9577 34.7211C98.0807 34.4151 98.2057 34.1106 98.3382 33.8096C98.4142 33.6381 98.4932 33.4676 98.5712 33.2971C98.6962 33.0246 98.8242 32.7531 98.9572 32.4851C99.0437 32.3106 99.1317 32.1376 99.2212 31.9646C99.3572 31.7016 99.4972 31.4411 99.6402 31.1826C99.7322 31.0151 99.8247 30.8471 99.9207 30.6816C100.076 30.4121 100.237 30.1466 100.399 29.8821C100.489 29.7356 100.577 29.5866 100.67 29.4411C100.879 29.1121 101.096 28.7881 101.316 28.4671C101.368 28.3921 101.417 28.3141 101.469 28.2391C101.743 27.8481 102.026 27.4646 102.315 27.0866C102.407 26.9656 102.505 26.8491 102.599 26.7296C102.802 26.4721 103.008 26.2156 103.218 25.9636C103.338 25.8206 103.461 25.6811 103.584 25.5401C103.778 25.3161 103.973 25.0946 104.173 24.8771C104.304 24.7336 104.438 24.5916 104.572 24.4501C104.773 24.2385 104.976 24.0305 105.182 23.8245C105.318 23.6885 105.455 23.553 105.593 23.419C105.812 23.208 106.035 23.0015 106.26 22.796C106.391 22.6765 106.52 22.556 106.652 22.439C106.929 22.1945 107.211 21.9565 107.497 21.721C107.582 21.651 107.664 21.578 107.75 21.5085C108.12 21.209 108.498 20.917 108.882 20.634C108.994 20.551 109.109 20.473 109.222 20.3915C109.5 20.192 109.779 19.994 110.062 19.803C110.211 19.703 110.363 19.6065 110.513 19.509C110.768 19.343 111.025 19.1795 111.286 19.0205C111.447 18.922 111.611 18.8255 111.775 18.729C112.032 18.578 112.292 18.43 112.554 18.2865C112.719 18.1955 112.885 18.105 113.051 18.017C113.327 17.871 113.607 17.731 113.888 17.593C114.042 17.517 114.195 17.4395 114.35 17.3655C114.691 17.2045 115.036 17.0515 115.383 16.903C115.481 16.861 115.578 16.815 115.677 16.7735C116.126 16.5855 116.582 16.4075 117.042 16.2395C117.144 16.2025 117.248 16.1695 117.351 16.133C117.708 16.0065 118.068 15.8835 118.431 15.77C118.591 15.72 118.752 15.674 118.913 15.6265C119.225 15.5335 119.537 15.444 119.853 15.361C120.029 15.3145 120.207 15.27 120.385 15.2265C120.539 15.1885 120.696 15.155 120.851 15.1195V159.049L88.3462 126.544C85.5542 123.752 81.0267 123.753 78.2342 126.544C75.4422 129.336 75.4422 133.864 78.2342 136.657L110.74 169.161H79.4297V169.161Z" fill="#9F7AEA"/>
</g>
<defs>
<clipPath id="clip0_201:81">
<rect width="256" height="256" fill="white"/>
</clipPath>
</defs>
</svg>
